FILE "Seirei Shinseiki - Fhey Area (1992)(Wolf Team)(JP).img" BINARY
  TRACK 01 MODE1/2352
    INDEX 01 00:00:00
  TRACK 02 AUDIO
    PREGAP 00:02:00
    INDEX 01 01:32:24
  TRACK 03 AUDIO
    INDEX 00 01:36:51
    INDEX 01 01:38:50
  TRACK 04 AUDIO
    INDEX 00 01:43:15
    INDEX 01 01:45:14
  TRACK 05 AUDIO
    INDEX 00 01:50:37
    INDEX 01 01:52:36
  TRACK 06 AUDIO
    INDEX 00 01:56:39
    INDEX 01 01:58:38
  TRACK 07 AUDIO
    INDEX 00 02:02:41
    INDEX 01 02:04:40
  TRACK 08 AUDIO
    INDEX 00 02:08:52
    INDEX 01 02:10:51
  TRACK 09 AUDIO
    INDEX 00 02:15:13
    INDEX 01 02:17:12
  TRACK 10 AUDIO
    INDEX 00 02:21:74
    INDEX 01 02:23:73
  TRACK 11 AUDIO
    INDEX 00 02:28:69
    INDEX 01 02:30:68
  TRACK 12 AUDIO
    INDEX 00 02:35:60
    INDEX 01 02:37:59
  TRACK 13 AUDIO
    INDEX 00 02:42:71
    INDEX 01 02:44:70
  TRACK 14 AUDIO
    INDEX 00 02:49:03
    INDEX 01 02:51:02
  TRACK 15 AUDIO
    INDEX 00 02:55:05
    INDEX 01 02:57:04
  TRACK 16 AUDIO
    INDEX 00 03:01:50
    INDEX 01 03:03:49
  TRACK 17 AUDIO
    INDEX 00 03:07:52
    INDEX 01 03:09:51
  TRACK 18 AUDIO
    INDEX 00 03:14:04
    INDEX 01 03:16:03
  TRACK 19 AUDIO
    INDEX 00 03:21:35
    INDEX 01 03:23:34
  TRACK 20 AUDIO
    INDEX 00 03:28:37
    INDEX 01 03:30:36
  TRACK 21 AUDIO
    INDEX 00 03:35:74
    INDEX 01 03:37:73
  TRACK 22 AUDIO
    INDEX 00 03:43:04
    INDEX 01 03:45:03
  TRACK 23 AUDIO
    INDEX 00 03:50:00
    INDEX 01 03:51:74
  TRACK 24 AUDIO
    INDEX 00 03:56:02
    INDEX 01 03:58:01
  TRACK 25 AUDIO
    INDEX 00 04:02:05
    INDEX 01 04:04:04
  TRACK 26 AUDIO
    INDEX 00 04:08:07
    INDEX 01 04:10:06
  TRACK 27 AUDIO
    INDEX 00 04:14:09
    INDEX 01 04:16:08
  TRACK 28 AUDIO
    INDEX 00 04:20:11
    INDEX 01 04:22:10
  TRACK 29 AUDIO
    INDEX 00 04:27:35
    INDEX 01 04:29:34
  TRACK 30 AUDIO
    INDEX 00 04:33:37
    INDEX 01 04:35:36
  TRACK 31 AUDIO
    INDEX 00 04:39:39
    INDEX 01 04:41:38
  TRACK 32 AUDIO
    INDEX 00 04:45:41
    INDEX 01 04:47:40
  TRACK 33 AUDIO
    INDEX 00 04:51:43
    INDEX 01 04:53:42
  TRACK 34 AUDIO
    INDEX 00 04:57:45
    INDEX 01 04:59:44
  TRACK 35 AUDIO
    INDEX 00 05:04:13
    INDEX 01 05:06:12
  TRACK 36 AUDIO
    INDEX 00 05:10:15
    INDEX 01 05:12:14
  TRACK 37 AUDIO
    INDEX 00 05:16:17
    INDEX 01 05:18:16
  TRACK 38 AUDIO
    INDEX 00 05:22:19
    INDEX 01 05:24:18
  TRACK 39 AUDIO
    INDEX 00 05:28:21
    INDEX 01 05:30:20
  TRACK 40 AUDIO
    INDEX 00 05:34:23
    INDEX 01 05:36:22
  TRACK 41 AUDIO
    INDEX 00 05:40:25
    INDEX 01 05:42:24
  TRACK 42 AUDIO
    INDEX 00 05:48:03
    INDEX 01 05:50:02
  TRACK 43 AUDIO
    INDEX 00 05:55:16
    INDEX 01 05:57:15
  TRACK 44 AUDIO
    INDEX 00 06:01:18
    INDEX 01 06:03:17
  TRACK 45 AUDIO
    INDEX 00 06:10:15
    INDEX 01 06:12:14
  TRACK 46 AUDIO
    INDEX 00 06:16:17
    INDEX 01 06:18:16
  TRACK 47 AUDIO
    INDEX 00 06:22:19
    INDEX 01 06:24:18
  TRACK 48 AUDIO
    INDEX 00 06:28:21
    INDEX 01 06:30:20
  TRACK 49 AUDIO
    INDEX 00 06:34:23
    INDEX 01 06:36:22
  TRACK 50 AUDIO
    INDEX 00 06:40:25
    INDEX 01 06:42:24
  TRACK 51 AUDIO
    INDEX 00 06:46:27
    INDEX 01 06:48:26
  TRACK 52 AUDIO
    INDEX 00 06:57:13
    INDEX 01 06:59:12
  TRACK 53 AUDIO
    INDEX 00 07:07:70
    INDEX 01 07:09:69
  TRACK 54 AUDIO
    INDEX 00 07:17:36
    INDEX 01 07:19:35
  TRACK 55 AUDIO
    INDEX 00 07:32:17
    INDEX 01 07:34:16
  TRACK 56 AUDIO
    INDEX 00 07:44:44
    INDEX 01 07:46:43
  TRACK 57 AUDIO
    INDEX 00 08:02:58
    INDEX 01 08:04:57
  TRACK 58 AUDIO
    INDEX 00 08:17:61
    INDEX 01 08:19:60
  TRACK 59 AUDIO
    INDEX 00 08:31:45
    INDEX 01 08:33:44
  TRACK 60 AUDIO
    INDEX 00 08:56:29
    INDEX 01 08:58:28
  TRACK 61 AUDIO
    INDEX 00 12:04:19
    INDEX 01 12:06:18
  TRACK 62 AUDIO
    INDEX 00 14:34:04
    INDEX 01 14:36:03
  TRACK 63 AUDIO
    INDEX 00 16:11:68
    INDEX 01 16:13:67
  TRACK 64 AUDIO
    INDEX 00 20:18:15
    INDEX 01 20:20:14
  TRACK 65 AUDIO
    INDEX 00 22:19:62
    INDEX 01 22:21:61
  TRACK 66 AUDIO
    INDEX 00 25:08:01
    INDEX 01 25:10:00
  TRACK 67 AUDIO
    INDEX 00 27:31:34
    INDEX 01 27:33:33
  TRACK 68 AUDIO
    INDEX 00 29:56:15
    INDEX 01 29:58:14
  TRACK 69 AUDIO
    INDEX 00 32:37:43
    INDEX 01 32:39:42
  TRACK 70 AUDIO
    INDEX 00 34:00:34
    INDEX 01 34:02:33
  TRACK 71 AUDIO
    INDEX 00 35:56:63
    INDEX 01 35:58:62
  TRACK 72 AUDIO
    INDEX 00 38:58:14
    INDEX 01 39:00:13
  TRACK 73 AUDIO
    INDEX 00 41:46:04
    INDEX 01 41:48:03
  TRACK 74 AUDIO
    INDEX 00 44:09:35
    INDEX 01 44:11:34
  TRACK 75 AUDIO
    INDEX 00 46:40:60
    INDEX 01 46:42:59
  TRACK 76 AUDIO
    INDEX 00 46:51:52
    INDEX 01 46:53:51
  TRACK 77 AUDIO
    INDEX 00 47:05:32
    INDEX 01 47:07:31
  TRACK 78 AUDIO
    INDEX 00 47:17:18
    INDEX 01 47:19:17
  TRACK 79 AUDIO
    INDEX 00 47:23:20
    INDEX 01 47:25:19
  TRACK 80 AUDIO
    INDEX 00 48:02:40
    INDEX 01 48:04:39
  TRACK 81 AUDIO
    INDEX 00 48:12:59
    INDEX 01 48:14:58
  TRACK 82 AUDIO
    INDEX 00 48:26:26
    INDEX 01 48:28:25
  TRACK 83 AUDIO
    INDEX 00 48:35:53
    INDEX 01 48:37:52
  TRACK 84 AUDIO
    INDEX 00 50:26:08
    INDEX 01 50:28:07
  TRACK 85 AUDIO
    INDEX 00 52:38:08
    INDEX 01 52:40:07
